<?xml version="1.0" encoding="utf-8"?>
<!-- Generator: Adobe Illustrator 27.3.1, SVG Export Plug-In . SVG Version: 6.00 Build 0)  -->
<svg version="1.1" xmlns="http://www.w3.org/2000/svg" xmlns:xlink="http://www.w3.org/1999/xlink"
	 viewBox="0 0 273 60" height="60" xml:space="preserve" fill="#fff">
<g>
	<g>
		<path d="M31.9,8.4c0,0.7,0,1.5,0,2.2c0,0.3-0.1,0.4-0.3,0.5c-2.9,1.4-5.2,3.4-7.2,5.8c-3,3.8-4.5,8.1-4.4,12.9
			c0.1,4.6,1.7,8.6,4.5,12.2c3.3,4.2,7.7,6.7,12.9,7.6c3.6,0.6,7,0.1,10.3-1.3c5-2.1,8.7-5.6,11-10.5c2.6-5.6,2.6-11.3-0.1-17
			c-2.1-4.3-5.3-7.5-9.6-9.7c-0.3-0.2-0.4-0.4-0.4-0.7c0-1.4,0-2.9,0-4.3c0-0.2,0-0.4,0.3-0.3c4.8,1.8,8.8,4.8,11.9,8.9
			c3.5,4.7,5.1,10,4.7,15.9c-0.4,5.7-2.3,10.9-6.1,15.2c-3.4,3.8-7.5,6.5-12.5,7.9c-7.4,2-14.2,0.7-20.6-3.4c-4.5-2.9-7.7-7-9.7-12
			c-1.5-3.8-2-7.8-1.5-11.8c0.8-7,4.3-12.5,9.7-16.8c2-1.6,4.3-2.8,6.7-3.8c0.3-0.1,0.4-0.1,0.4,0.3C31.9,6.9,31.9,7.7,31.9,8.4
			C31.9,8.4,31.9,8.4,31.9,8.4z"/>
		<path d="M40.3,46.3c-2-2.5-4.4-4.6-6.6-6.8c-3-3-6.1-6-9.1-8.9c-0.2-0.2-0.2-0.3,0-0.6c1.1-1.1,2.2-2.1,3.3-3.2
			c0.2-0.2,0.3-0.2,0.5,0c2.5,2.5,5,4.9,7.5,7.4c0.3,0.3,0.4,0.6,0.5,0.9c0.9,1.9,1.7,3.7,2.6,5.6c0.3,0.6,0.3,0.6,0.8,0.3
			c0.2-0.1,0.3-0.2,0.5-0.2c0.5,0,0.7-0.3,0.9-0.8c0.7-1.9,1.5-3.7,2.2-5.6c0-0.1,0-0.2,0-0.2c-1.2,1.1-2.2,2.5-3.2,3.8
			c-0.6-0.9-1.2-1.8-1.7-2.7c-1.4-2.3-2.6-4.6-3.9-7c-0.1-0.2-0.1-0.4-0.1-0.6c0-5.9,0-11.9,0-17.8c0-0.3,0-0.5,0.3-0.6
			c0.2-0.2,0-0.3,0-0.5c-0.7-2.1-0.1-5,2.5-5.9c0.3-0.1,0.7-0.1,1-0.1c1.4,0,2.7-0.1,4.1,0c1.6,0.1,2.7,1,3.3,2.4
			c0.6,1.2,0.5,2.5,0,3.8c-0.1,0.2-0.1,0.3,0.1,0.4C46,9.5,46,9.7,46,9.9c0,4.9,0,9.7,0,14.6c0,0.2-0.1,0.3-0.2,0.4
			c-0.7,0.8-1.4,1.5-2.1,2.3c-0.2,0.2-0.2,0.2-0.4,0c-0.2-0.3-0.2-0.6-0.2-0.9c0-2.9,0-5.7,0-8.6c0-0.4-0.1-0.5-0.5-0.5
			c-0.9,0-0.9-0.1-0.9,0.8c0,2.6,0,5.3,0,7.9c0,0.7-0.2,1.3-0.9,1.7c-1,0.5-2.1-0.2-2.1-1.4c0-2.3,0-4.6,0-6.8c0-0.6,0-1.3,0-1.9
			c0-0.3-0.1-0.4-0.4-0.3c-1,0.1-1,0.1-1,1.1c0,2.6,0,5.2,0,7.7c0,0.8-0.1,1.5-0.9,1.8c-0.2,0.1-0.1,0.2,0,0.2
			c0.9,1.6,1.7,3.3,2.6,4.9c0.1,0.2,0.2,0.2,0.3,0.1c0.5-0.2,1-0.2,1.5,0c0.1,0,0.2,0.1,0.4-0.1c1.4-1.7,2.9-3.3,4.5-4.9
			c2.1-2.2,4.3-4.4,6.4-6.6c0.2-0.2,0.3-0.2,0.5,0c1.1,1.1,2.2,2.3,3.4,3.4c0.2,0.2,0.3,0.4,0,0.6c-3.8,3.8-7.7,7.6-11.5,11.4
			c-0.3,0.3-0.4,0.6-0.6,1c-1.2,2.7-2.3,5.4-3.5,8C40.5,46,40.4,46.1,40.3,46.3z M40.4,4.8C40.4,4.8,40.4,4.8,40.4,4.8
			c-0.6,0-1.2,0-1.8,0c-1.2,0.1-2,0.8-2.2,2c-0.1,0.4,0,0.9-0.1,1.3c0,0.3,0.1,0.5,0.4,0.4c2.4-0.4,4.7-0.5,7.1,0.1
			c0.3,0.1,0.3,0,0.3-0.3c0-0.4,0-0.9,0-1.3c0-1.3-0.8-2.2-2.2-2.2C41.5,4.8,40.9,4.8,40.4,4.8z M40.1,13.5c-0.4,0-0.7,0-1.1,0
			c-0.5,0-1,0.1-1.4,0.2c-1.3,0.2-1.3,0.2-1.3,1.4c0,0.5,0,0.5,0.5,0.4c1.5-0.3,2.9-0.4,4.4-0.3c0.8,0,1.6,0.1,2.4,0.3
			c0.5,0.1,0.5,0.1,0.5-0.4c0-0.3,0-0.6,0-0.8c0-0.3-0.1-0.4-0.4-0.5C42.6,13.6,41.4,13.5,40.1,13.5z M40.6,10c-1.1,0-1.9,0-2.6,0.1
			c-0.1,0-0.3,0-0.4,0.1c-1.3,0.2-1.3,0.2-1.3,1.5c0,0.3,0.1,0.3,0.3,0.3c0.8-0.1,1.5-0.2,2.3-0.3c1.7-0.1,3.3,0,5,0.3
			c0.2,0,0.3,0,0.3-0.2c0-0.3,0-0.6,0-0.9c0-0.3-0.1-0.4-0.4-0.5C42.7,10.1,41.5,10,40.6,10z"/>
	</g>
	<g>
		<path d="M73.9,47.2V10h9.3L87,25.9L90.8,10h9.4v37.2h-7V32.9c0-3.7,0.2-7.3,0.5-10.8c0.3-3.4,0.7-6.5,1-9.1L90,31.4h-6.1
			l-4.6-17.9c0.3,2.2,0.7,5,1,8.4c0.4,3.4,0.5,7.1,0.5,11v14.3H73.9z"/>
		<path d="M114,47.7c-2.8,0-5-0.8-6.6-2.4c-1.6-1.6-2.4-3.7-2.4-6.3c0-2.8,1-5,3-6.7c2-1.6,4.8-2.4,8.5-2.4h5.5v-1.8
			c0-1.1-0.4-1.9-1.1-2.5c-0.7-0.6-1.8-0.9-3.1-0.9c-1.3,0-2.3,0.3-3.1,0.8c-0.8,0.5-1.2,1.3-1.2,2.2h-7.2c0.1-2.8,1.2-4.9,3.3-6.6
			c2.1-1.6,4.9-2.4,8.4-2.4c3.7,0,6.6,0.8,8.7,2.5c2.1,1.7,3.1,4.1,3.1,7.1v18.8h-7.4v-4.8c-0.3,1.7-1.2,3-2.7,3.9
			C118,47.2,116.2,47.7,114,47.7z M116.7,41.6c1.6,0,2.9-0.4,3.8-1.2c0.9-0.8,1.4-1.8,1.4-3.1v-2.9h-5.3c-1.4,0-2.4,0.3-3.1,1
			s-1.1,1.5-1.1,2.6c0,1.1,0.4,1.9,1.1,2.6C114.2,41.3,115.3,41.6,116.7,41.6z"/>
		<path d="M137.2,47.2v-28h7.4v5.3c0.4-1.8,1.3-3.2,2.7-4.3c1.4-1,3.1-1.6,5.2-1.6c2.8,0,5,1,6.6,2.9c1.6,1.9,2.4,4.5,2.4,7.8v2.8
			h-7.6v-2.3c0-1.5-0.4-2.6-1.2-3.4c-0.8-0.8-1.9-1.2-3.3-1.2c-1.4,0-2.5,0.5-3.3,1.3c-0.8,0.9-1.2,2.2-1.2,3.8v16.7H137.2z"/>
		<path d="M167,47.2V10h7.6v19.8h3.9l5.9-10.6h8.4L185,32.9l7.9,14.3h-8.6l-5.9-11h-3.8v11H167z"/>
		<path d="M209.2,47.7c-3.8,0-6.7-1-8.8-3.1c-2.1-2-3.2-4.8-3.2-8.3V19.2h7.6v17.1c0,3.2,1.5,4.8,4.4,4.8c1.4,0,2.5-0.4,3.2-1.2
			c0.8-0.8,1.1-2,1.1-3.6V19.2h7.6v17.1c0,3.6-1.1,6.4-3.2,8.4C215.9,46.7,213,47.7,209.2,47.7z"/>
		<path d="M238.6,47.7c-2.3,0-4.3-0.4-6.1-1.1c-1.7-0.7-3.1-1.7-4-3c-1-1.3-1.5-2.8-1.5-4.5h7.5c0,1,0.4,1.7,1.1,2.1
			c0.7,0.5,1.7,0.7,3,0.7h2.2c1.4,0,2.5-0.2,3.2-0.7c0.8-0.5,1.1-1.2,1.1-2c0-0.8-0.3-1.5-0.9-1.9c-0.6-0.4-1.5-0.7-2.8-0.8
			l-6.4-0.8c-2.5-0.3-4.4-1.2-5.7-2.8c-1.3-1.5-2-3.5-2-5.8c0-5.7,3.6-8.5,10.9-8.5h2.4c3.4,0,6.2,0.7,8.2,2.2c2,1.5,3.1,3.5,3.1,6
			h-7.5c0-0.8-0.3-1.4-1-1.9c-0.7-0.4-1.6-0.7-2.8-0.7h-2.4c-1.2,0-2.1,0.2-2.7,0.7c-0.6,0.4-0.9,1.1-0.9,1.8c0,0.8,0.3,1.3,0.9,1.6
			c0.6,0.3,1.4,0.5,2.5,0.6l6.1,0.8c2.8,0.3,4.8,1.3,6.2,2.9c1.4,1.6,2.1,3.7,2.1,6.3c0,2.7-1,4.9-3,6.4s-4.9,2.3-8.7,2.3H238.6z"/>
	</g>
</g>
</svg>
